<svg width="278" height="278" viewBox="0 0 278 278" fill="none" xmlns="http://www.w3.org/2000/svg">
<path d="M32.76 212.8C29.5867 212.8 27.0667 211.867 25.2 210C23.3333 207.947 22.4 205.147 22.4 201.6V47.6C22.4 37.1467 25.48 28.9333 31.64 22.96C37.9867 16.9867 46.76 14 57.96 14H105.56C158.76 14 185.36 36.3067 185.36 80.92C185.36 101.453 178.547 117.32 164.92 128.52C151.48 139.533 132.067 145.04 106.68 145.04H43.4V201.6C43.4 205.147 42.4667 207.947 40.6 210C38.7333 211.867 36.12 212.8 32.76 212.8ZM106.68 127.4C124.787 127.4 138.787 123.853 148.68 116.76C158.76 109.667 163.8 97.72 163.8 80.92C163.8 63.3733 158.947 50.7733 149.24 43.12C139.533 35.28 125.44 31.36 106.96 31.36H58.24C53.76 31.36 50.12 32.8533 47.32 35.84C44.7067 38.8267 43.4 42.7467 43.4 47.6V127.4H106.68Z" fill="black"/>
<path d="M117.64 210C108.12 210 100.653 207.853 95.24 203.56C89.8267 199.08 87.12 192.547 87.12 183.96C87.12 177.24 88.3333 171.64 90.76 167.16C93.3733 162.68 98.04 157.733 104.76 152.32L220.4 58.24C224.133 55.2533 226.653 52.5467 227.96 50.12C229.453 47.5067 230.2 44.4267 230.2 40.88C230.2 34.5333 226.28 31.36 218.44 31.36H104.2C100.653 31.36 97.76 30.7067 95.52 29.4C93.4667 27.9067 92.44 25.76 92.44 22.96C92.44 16.9867 96.36 14 104.2 14H220.96C230.48 14 237.947 16.1467 243.36 20.44C248.773 24.7333 251.48 31.2667 251.48 40.04C251.48 46.9467 250.173 52.5467 247.56 56.84C245.133 61.1333 240.56 65.9867 233.84 71.4L117.92 165.76C114.373 168.56 111.853 171.267 110.36 173.88C109.053 176.493 108.4 179.573 108.4 183.12C108.4 189.467 112.6 192.64 121 192.64H242.24C245.787 192.64 248.587 193.387 250.64 194.88C252.693 196.187 253.72 198.24 253.72 201.04C253.72 204.027 252.693 206.267 250.64 207.76C248.587 209.253 245.787 210 242.24 210H117.64Z" fill="black"/>
<path d="M25.998 239.42C25.382 239.42 24.892 239.252 24.528 238.916C24.192 238.552 24.024 238.062 24.024 237.446V215.018C24.024 213.338 24.528 212.022 25.536 211.07C26.544 210.09 27.944 209.6 29.736 209.6H36.834C40.922 209.6 44.002 210.454 46.074 212.162C48.146 213.87 49.182 216.404 49.182 219.764C49.182 222.956 48.132 225.406 46.032 227.114C43.96 228.794 40.964 229.634 37.044 229.634H27.972V237.446C27.972 238.062 27.79 238.552 27.426 238.916C27.09 239.252 26.614 239.42 25.998 239.42ZM37.044 226.442C39.648 226.442 41.65 225.924 43.05 224.888C44.45 223.824 45.15 222.116 45.15 219.764C45.15 217.328 44.464 215.564 43.092 214.472C41.72 213.352 39.704 212.792 37.044 212.792H30.072C29.428 212.792 28.91 213.002 28.518 213.422C28.154 213.842 27.972 214.402 27.972 215.102V226.442H37.044ZM48.5796 239.42C47.9636 239.42 47.4736 239.252 47.1096 238.916C46.7736 238.552 46.6056 238.062 46.6056 237.446V221.612C46.6056 217.72 47.7116 214.682 49.9236 212.498C52.1356 210.286 55.1876 209.18 59.0796 209.18C61.6556 209.18 63.8816 209.684 65.7576 210.692C67.6616 211.672 69.1036 213.1 70.0836 214.976C71.0916 216.852 71.5956 219.064 71.5956 221.612V237.446C71.5956 238.062 71.4136 238.552 71.0496 238.916C70.6856 239.252 70.1956 239.42 69.5796 239.42C68.9916 239.42 68.5156 239.252 68.1516 238.916C67.7876 238.552 67.6056 238.062 67.6056 237.446V228.878H50.5536V237.446C50.5536 238.062 50.3716 238.552 50.0076 238.916C49.6716 239.252 49.1956 239.42 48.5796 239.42ZM67.6056 225.686V221.486C67.6056 218.574 66.8776 216.348 65.4216 214.808C63.9656 213.24 61.8516 212.456 59.0796 212.456C56.3076 212.456 54.1936 213.226 52.7376 214.766C51.2816 216.278 50.5536 218.518 50.5536 221.486V225.686H67.6056ZM75.6912 239C73.8432 239 72.4012 238.51 71.3652 237.53C70.3572 236.55 69.8532 235.192 69.8532 233.456V215.018C69.8532 213.338 70.3572 212.022 71.3652 211.07C72.3732 210.09 73.7732 209.6 75.5652 209.6H85.4352C88.4032 209.6 90.6992 210.3 92.3232 211.7C93.9472 213.1 94.7592 215.074 94.7592 217.622C94.7592 219.022 94.3812 220.268 93.6252 221.36C92.8692 222.452 91.8612 223.278 90.6012 223.838V223.88C92.0292 224.412 93.1632 225.252 94.0032 226.4C94.8432 227.548 95.2632 228.864 95.2632 230.348C95.2632 233.036 94.4232 235.15 92.7432 236.69C91.0912 238.23 88.8232 239 85.9392 239H75.6912ZM85.6452 222.368C87.2412 222.368 88.4872 221.948 89.3832 221.108C90.3072 220.268 90.7692 219.106 90.7692 217.622C90.7692 216.026 90.3072 214.822 89.3832 214.01C88.4872 213.17 87.1712 212.75 85.4352 212.75H75.8592C75.2432 212.75 74.7392 212.96 74.3472 213.38C73.9832 213.8 73.8012 214.36 73.8012 215.06V222.368H85.6452ZM85.6452 235.808C87.4932 235.808 88.8932 235.36 89.8452 234.464C90.7972 233.54 91.2732 232.182 91.2732 230.39C91.2732 228.85 90.7692 227.66 89.7612 226.82C88.7532 225.952 87.3672 225.518 85.6032 225.518H73.8012V233.54C73.8012 234.212 73.9832 234.758 74.3472 235.178C74.7392 235.598 75.2432 235.808 75.8592 235.808H85.6452ZM98.8129 239C96.9369 239 95.4809 238.51 94.4449 237.53C93.4369 236.55 92.9329 235.192 92.9329 233.456V211.154C92.9329 210.538 93.1009 210.062 93.4369 209.726C93.8009 209.362 94.2909 209.18 94.9069 209.18C95.5229 209.18 96.0129 209.362 96.3769 209.726C96.7409 210.062 96.9229 210.538 96.9229 211.154V233.498C96.9229 234.198 97.1049 234.758 97.4689 235.178C97.8329 235.598 98.3369 235.808 98.9809 235.808H112.799C114.115 235.808 114.773 236.34 114.773 237.404C114.773 237.908 114.591 238.3 114.227 238.58C113.891 238.86 113.415 239 112.799 239H98.8129ZM122.991 239.42C120.023 239.42 117.377 238.79 115.053 237.53C112.757 236.27 110.965 234.506 109.677 232.238C108.417 229.942 107.787 227.296 107.787 224.3C107.787 221.304 108.417 218.672 109.677 216.404C110.965 214.108 112.757 212.33 115.053 211.07C117.377 209.81 120.023 209.18 122.991 209.18C125.959 209.18 128.591 209.81 130.887 211.07C133.211 212.33 135.003 214.108 136.263 216.404C137.551 218.672 138.195 221.304 138.195 224.3C138.195 227.296 137.551 229.942 136.263 232.238C135.003 234.506 133.211 236.27 130.887 237.53C128.591 238.79 125.959 239.42 122.991 239.42ZM122.991 236.144C125.203 236.144 127.149 235.682 128.829 234.758C130.537 233.806 131.867 232.434 132.819 230.642C133.771 228.85 134.247 226.736 134.247 224.3C134.247 221.808 133.757 219.68 132.777 217.916C131.797 216.124 130.439 214.766 128.703 213.842C126.967 212.918 124.979 212.456 122.739 212.456C120.583 212.456 118.665 212.932 116.985 213.884C115.333 214.836 114.045 216.208 113.121 218C112.225 219.764 111.777 221.864 111.777 224.3C111.777 226.736 112.239 228.85 113.163 230.642C114.115 232.434 115.431 233.806 117.111 234.758C118.819 235.682 120.779 236.144 122.991 236.144ZM143.643 239C142.075 239 140.843 238.636 139.947 237.908C139.079 237.18 138.645 236.144 138.645 234.8C138.645 233.792 138.841 232.924 139.233 232.196C139.653 231.468 140.395 230.698 141.459 229.886L158.511 216.32C158.987 215.928 159.323 215.578 159.519 215.27C159.715 214.934 159.813 214.528 159.813 214.052C159.813 213.632 159.687 213.324 159.435 213.128C159.183 212.904 158.763 212.792 158.175 212.792H141.627C140.983 212.792 140.451 212.652 140.031 212.372C139.639 212.092 139.443 211.714 139.443 211.238C139.443 210.706 139.639 210.3 140.031 210.02C140.423 209.74 140.955 209.6 141.627 209.6H158.847C160.415 209.6 161.633 209.95 162.501 210.65C163.397 211.35 163.845 212.4 163.845 213.8C163.845 214.864 163.649 215.746 163.257 216.446C162.865 217.118 162.123 217.874 161.031 218.714L143.937 232.28C143.461 232.672 143.125 233.036 142.929 233.372C142.761 233.708 142.677 234.114 142.677 234.59C142.677 235.402 143.307 235.808 144.567 235.808H162.039C162.655 235.808 163.159 235.948 163.551 236.228C163.971 236.508 164.181 236.886 164.181 237.362C164.181 237.894 163.971 238.3 163.551 238.58C163.159 238.86 162.655 239 162.039 239H143.643ZM163.55 239.42C162.934 239.42 162.444 239.252 162.08 238.916C161.744 238.552 161.576 238.062 161.576 237.446V221.612C161.576 217.72 162.682 214.682 164.894 212.498C167.106 210.286 170.158 209.18 174.05 209.18C176.626 209.18 178.852 209.684 180.728 210.692C182.632 211.672 184.074 213.1 185.054 214.976C186.062 216.852 186.566 219.064 186.566 221.612V237.446C186.566 238.062 186.384 238.552 186.02 238.916C185.656 239.252 185.166 239.42 184.55 239.42C183.962 239.42 183.486 239.252 183.122 238.916C182.758 238.552 182.576 238.062 182.576 237.446V228.878H165.524V237.446C165.524 238.062 165.342 238.552 164.978 238.916C164.642 239.252 164.166 239.42 163.55 239.42ZM182.576 225.686V221.486C182.576 218.574 181.848 216.348 180.392 214.808C178.936 213.24 176.822 212.456 174.05 212.456C171.278 212.456 169.164 213.226 167.708 214.766C166.252 216.278 165.524 218.518 165.524 221.486V225.686H182.576ZM190.745 239C188.869 239 187.413 238.51 186.377 237.53C185.369 236.55 184.865 235.192 184.865 233.456V211.154C184.865 210.538 185.033 210.062 185.369 209.726C185.733 209.362 186.223 209.18 186.839 209.18C187.455 209.18 187.945 209.362 188.309 209.726C188.673 210.062 188.855 210.538 188.855 211.154V233.498C188.855 234.198 189.037 234.758 189.401 235.178C189.765 235.598 190.269 235.808 190.913 235.808H204.731C206.047 235.808 206.705 236.34 206.705 237.404C206.705 237.908 206.523 238.3 206.159 238.58C205.823 238.86 205.347 239 204.731 239H190.745ZM209.681 239C207.805 239 206.349 238.51 205.313 237.53C204.305 236.55 203.801 235.192 203.801 233.456V211.154C203.801 210.538 203.969 210.062 204.305 209.726C204.669 209.362 205.159 209.18 205.775 209.18C206.391 209.18 206.881 209.362 207.245 209.726C207.609 210.062 207.791 210.538 207.791 211.154V233.498C207.791 234.198 207.973 234.758 208.337 235.178C208.701 235.598 209.205 235.808 209.849 235.808H223.667C224.983 235.808 225.641 236.34 225.641 237.404C225.641 237.908 225.459 238.3 225.095 238.58C224.759 238.86 224.283 239 223.667 239H209.681ZM225.929 239.42C225.341 239.42 224.865 239.252 224.501 238.916C224.165 238.552 223.997 238.062 223.997 237.446V211.154C223.997 210.538 224.165 210.062 224.501 209.726C224.865 209.362 225.341 209.18 225.929 209.18C226.545 209.18 227.035 209.362 227.399 209.726C227.763 210.062 227.945 210.538 227.945 211.154V237.446C227.945 238.062 227.763 238.552 227.399 238.916C227.035 239.252 226.545 239.42 225.929 239.42ZM242.049 239.42C239.081 239.42 236.435 238.79 234.111 237.53C231.815 236.27 230.023 234.506 228.735 232.238C227.475 229.942 226.845 227.296 226.845 224.3C226.845 221.304 227.475 218.672 228.735 216.404C230.023 214.108 231.815 212.33 234.111 211.07C236.435 209.81 239.081 209.18 242.049 209.18C245.017 209.18 247.649 209.81 249.945 211.07C252.269 212.33 254.061 214.108 255.321 216.404C256.609 218.672 257.253 221.304 257.253 224.3C257.253 227.296 256.609 229.942 255.321 232.238C254.061 234.506 252.269 236.27 249.945 237.53C247.649 238.79 245.017 239.42 242.049 239.42ZM242.049 236.144C244.261 236.144 246.207 235.682 247.887 234.758C249.595 233.806 250.925 232.434 251.877 230.642C252.829 228.85 253.305 226.736 253.305 224.3C253.305 221.808 252.815 219.68 251.835 217.916C250.855 216.124 249.497 214.766 247.761 213.842C246.025 212.918 244.037 212.456 241.797 212.456C239.641 212.456 237.723 212.932 236.043 213.884C234.391 214.836 233.103 216.208 232.179 218C231.283 219.764 230.835 221.864 230.835 224.3C230.835 226.736 231.297 228.85 232.221 230.642C233.173 232.434 234.489 233.806 236.169 234.758C237.877 235.682 239.837 236.144 242.049 236.144Z" fill="black"/>
<path d="M24.464 271.22C24.0827 271.22 23.892 270.985 23.892 270.516V258.02C23.892 257.257 24.112 256.663 24.552 256.238C25.0067 255.813 25.6373 255.6 26.444 255.6H33.264C33.4987 255.6 33.6673 255.644 33.77 255.732C33.8727 255.805 33.924 255.937 33.924 256.128C33.924 256.465 33.704 256.634 33.264 256.634H26.312C25.9307 256.634 25.6227 256.759 25.388 257.008C25.168 257.243 25.058 257.558 25.058 257.954V262.838H31.592C31.8267 262.838 31.9953 262.882 32.098 262.97C32.2007 263.043 32.252 263.175 32.252 263.366C32.252 263.703 32.032 263.872 31.592 263.872H25.058V270.516C25.058 270.985 24.86 271.22 24.464 271.22ZM37.4796 271.22C37.1129 271.22 36.9296 270.985 36.9296 270.516V260.704C36.9296 260.235 37.1129 260 37.4796 260C37.8609 260 38.0516 260.235 38.0516 260.704V262.266C38.5796 261.562 39.1956 261.049 39.8996 260.726C40.6036 260.389 41.4396 260.22 42.4076 260.22H42.9796C43.4342 260.22 43.6616 260.396 43.6616 260.748C43.6616 261.1 43.4342 261.276 42.9796 261.276H42.4076C41.0582 261.276 39.9949 261.643 39.2176 262.376C38.4402 263.109 38.0516 264.114 38.0516 265.39V270.516C38.0516 270.985 37.8609 271.22 37.4796 271.22ZM51.3795 271.22C50.1035 271.22 49.0255 270.956 48.1455 270.428C47.2801 269.885 46.6348 269.189 46.2095 268.338C45.7841 267.487 45.5715 266.578 45.5715 265.61C45.5715 264.642 45.7841 263.733 46.2095 262.882C46.6348 262.031 47.2801 261.342 48.1455 260.814C49.0255 260.271 50.1035 260 51.3795 260C52.6555 260 53.7261 260.271 54.5915 260.814C55.4715 261.342 56.1241 262.031 56.5495 262.882C56.9748 263.733 57.1875 264.642 57.1875 265.61C57.1875 266.578 56.9748 267.487 56.5495 268.338C56.1241 269.189 55.4715 269.885 54.5915 270.428C53.7261 270.956 52.6555 271.22 51.3795 271.22ZM51.3795 270.164C52.7875 270.164 53.9168 269.768 54.7675 268.976C55.6181 268.169 56.0435 267.047 56.0435 265.61C56.0435 264.173 55.6181 263.058 54.7675 262.266C53.9168 261.459 52.7875 261.056 51.3795 261.056C49.9715 261.056 48.8421 261.459 47.9915 262.266C47.1408 263.058 46.7155 264.173 46.7155 265.61C46.7155 267.047 47.1408 268.169 47.9915 268.976C48.8421 269.768 49.9715 270.164 51.3795 270.164ZM61.1966 271.22C60.8299 271.22 60.6466 270.985 60.6466 270.516V260.704C60.6466 260.235 60.8299 260 61.1966 260C61.5779 260 61.7686 260.235 61.7686 260.704V262.266C62.3113 261.533 62.9713 260.975 63.7486 260.594C64.5406 260.198 65.4059 260 66.3446 260C67.7526 260 68.8159 260.367 69.5346 261.1C70.2679 261.833 70.6346 262.911 70.6346 264.334V270.516C70.6346 270.985 70.4439 271.22 70.0626 271.22C69.6959 271.22 69.5126 270.985 69.5126 270.516V264.334C69.5126 263.205 69.2559 262.376 68.7426 261.848C68.2293 261.32 67.4299 261.056 66.3446 261.056C65.4353 261.056 64.6359 261.239 63.9466 261.606C63.2573 261.958 62.7219 262.464 62.3406 263.124C61.9593 263.784 61.7686 264.539 61.7686 265.39V270.516C61.7686 270.985 61.5779 271.22 61.1966 271.22ZM81.4658 269.086C81.5978 269.189 81.6638 269.306 81.6638 269.438C81.6638 269.555 81.6125 269.687 81.5098 269.834C81.2312 270.245 80.8278 270.582 80.2998 270.846C79.7865 271.095 79.2512 271.22 78.6938 271.22C77.8138 271.22 77.1098 270.941 76.5818 270.384C76.0685 269.827 75.8118 269.079 75.8118 268.14V261.21H74.5358C74.3012 261.21 74.1325 261.173 74.0298 261.1C73.9272 261.012 73.8758 260.88 73.8758 260.704C73.8758 260.381 74.0958 260.22 74.5358 260.22H75.8118V256.304C75.8118 255.835 76.0025 255.6 76.3838 255.6C76.7505 255.6 76.9338 255.835 76.9338 256.304V260.22H80.2558C80.6958 260.22 80.9158 260.381 80.9158 260.704C80.9158 260.88 80.8645 261.012 80.7618 261.1C80.6592 261.173 80.4905 261.21 80.2558 261.21H76.9338V268.228C76.9338 269.519 77.5205 270.164 78.6938 270.164C79.1045 270.164 79.4565 270.098 79.7498 269.966C80.0432 269.819 80.3365 269.577 80.6298 269.24C80.8058 269.049 80.9745 268.954 81.1358 268.954C81.2532 268.954 81.3632 268.998 81.4658 269.086ZM90.2002 271.22C88.3082 271.22 86.8562 270.729 85.8442 269.746C84.8468 268.749 84.3482 267.333 84.3482 265.5C84.3482 264.385 84.5828 263.417 85.0522 262.596C85.5215 261.76 86.1962 261.122 87.0762 260.682C87.9562 260.227 88.9902 260 90.1782 260C91.2928 260 92.2755 260.183 93.1262 260.55C93.9915 260.902 94.6662 261.401 95.1502 262.046C95.6342 262.691 95.8762 263.432 95.8762 264.268C95.8762 264.84 95.7295 265.287 95.4362 265.61C95.1428 265.933 94.7248 266.094 94.1822 266.094H85.5362C85.5362 267.37 85.9468 268.367 86.7682 269.086C87.5895 269.805 88.7335 270.164 90.2002 270.164C91.1242 270.164 91.9015 270.061 92.5322 269.856C93.1775 269.636 93.7642 269.277 94.2922 268.778C94.5268 268.573 94.7028 268.47 94.8202 268.47C94.8935 268.47 94.9815 268.507 95.0842 268.58C95.2455 268.712 95.3262 268.851 95.3262 268.998C95.3262 269.13 95.2748 269.247 95.1722 269.35C94.6148 269.966 93.9108 270.435 93.0602 270.758C92.2242 271.066 91.2708 271.22 90.2002 271.22ZM93.8742 265.104C94.1822 265.104 94.4022 265.038 94.5342 264.906C94.6662 264.774 94.7322 264.554 94.7322 264.246C94.7322 263.645 94.5342 263.102 94.1382 262.618C93.7568 262.119 93.2142 261.738 92.5102 261.474C91.8208 261.195 91.0435 261.056 90.1782 261.056C88.6968 261.056 87.5528 261.408 86.7462 262.112C85.9542 262.816 85.5582 263.813 85.5582 265.104H93.8742ZM100.21 271.22C99.843 271.22 99.6597 270.985 99.6597 270.516V260.704C99.6597 260.235 99.843 260 100.21 260C100.591 260 100.782 260.235 100.782 260.704V262.266C101.324 261.533 101.984 260.975 102.762 260.594C103.554 260.198 104.419 260 105.358 260C106.766 260 107.829 260.367 108.548 261.1C109.281 261.833 109.648 262.911 109.648 264.334V270.516C109.648 270.985 109.457 271.22 109.076 271.22C108.709 271.22 108.526 270.985 108.526 270.516V264.334C108.526 263.205 108.269 262.376 107.756 261.848C107.242 261.32 106.443 261.056 105.358 261.056C104.448 261.056 103.649 261.239 102.96 261.606C102.27 261.958 101.735 262.464 101.354 263.124C100.972 263.784 100.782 264.539 100.782 265.39V270.516C100.782 270.985 100.591 271.22 100.21 271.22ZM119.203 271.22C117.355 271.22 115.91 270.729 114.869 269.746C113.842 268.763 113.329 267.414 113.329 265.698C113.329 264.627 113.556 263.667 114.011 262.816C114.466 261.951 115.133 261.269 116.013 260.77C116.908 260.257 117.986 260 119.247 260C120.362 260 121.308 260.22 122.085 260.66C122.862 261.085 123.552 261.679 124.153 262.442L124.175 255.006C124.175 254.537 124.366 254.302 124.747 254.302C125.114 254.302 125.297 254.537 125.297 255.006V270.516C125.297 270.985 125.114 271.22 124.747 271.22C124.366 271.22 124.175 270.985 124.175 270.516V268.734C123.647 269.555 122.958 270.179 122.107 270.604C121.256 271.015 120.288 271.22 119.203 271.22ZM119.203 270.164C120.758 270.164 121.975 269.761 122.855 268.954C123.735 268.133 124.175 267.018 124.175 265.61C124.175 264.671 123.94 263.857 123.471 263.168C123.016 262.479 122.408 261.958 121.645 261.606C120.897 261.239 120.098 261.056 119.247 261.056C117.736 261.056 116.563 261.481 115.727 262.332C114.891 263.183 114.473 264.305 114.473 265.698C114.473 267.209 114.876 268.331 115.683 269.064C116.504 269.797 117.678 270.164 119.203 270.164ZM139.165 271C138.358 271 137.727 270.787 137.273 270.362C136.833 269.937 136.613 269.343 136.613 268.58V258.02C136.613 257.257 136.833 256.663 137.273 256.238C137.727 255.813 138.358 255.6 139.165 255.6H142.267C143.719 255.6 144.995 255.923 146.095 256.568C147.209 257.199 148.067 258.101 148.669 259.274C149.27 260.433 149.571 261.782 149.571 263.322C149.571 264.862 149.27 266.211 148.669 267.37C148.067 268.529 147.217 269.423 146.117 270.054C145.017 270.685 143.733 271 142.267 271H139.165ZM142.047 269.966C144.027 269.966 145.574 269.379 146.689 268.206C147.818 267.033 148.383 265.405 148.383 263.322C148.383 261.943 148.126 260.755 147.613 259.758C147.114 258.746 146.388 257.976 145.435 257.448C144.481 256.905 143.352 256.634 142.047 256.634H139.033C138.651 256.634 138.343 256.759 138.109 257.008C137.889 257.243 137.779 257.558 137.779 257.954V268.646C137.779 269.042 137.889 269.365 138.109 269.614C138.343 269.849 138.651 269.966 139.033 269.966H142.047ZM158.774 271.22C156.882 271.22 155.43 270.729 154.418 269.746C153.421 268.749 152.922 267.333 152.922 265.5C152.922 264.385 153.157 263.417 153.626 262.596C154.095 261.76 154.77 261.122 155.65 260.682C156.53 260.227 157.564 260 158.752 260C159.867 260 160.849 260.183 161.7 260.55C162.565 260.902 163.24 261.401 163.724 262.046C164.208 262.691 164.45 263.432 164.45 264.268C164.45 264.84 164.303 265.287 164.01 265.61C163.717 265.933 163.299 266.094 162.756 266.094H154.11C154.11 267.37 154.521 268.367 155.342 269.086C156.163 269.805 157.307 270.164 158.774 270.164C159.698 270.164 160.475 270.061 161.106 269.856C161.751 269.636 162.338 269.277 162.866 268.778C163.101 268.573 163.277 268.47 163.394 268.47C163.467 268.47 163.555 268.507 163.658 268.58C163.819 268.712 163.9 268.851 163.9 268.998C163.9 269.13 163.849 269.247 163.746 269.35C163.189 269.966 162.485 270.435 161.634 270.758C160.798 271.066 159.845 271.22 158.774 271.22ZM162.448 265.104C162.756 265.104 162.976 265.038 163.108 264.906C163.24 264.774 163.306 264.554 163.306 264.246C163.306 263.645 163.108 263.102 162.712 262.618C162.331 262.119 161.788 261.738 161.084 261.474C160.395 261.195 159.617 261.056 158.752 261.056C157.271 261.056 156.127 261.408 155.32 262.112C154.528 262.816 154.132 263.813 154.132 265.104H162.448ZM172.669 271.22C171.994 271.22 171.437 271.029 170.997 270.648C170.572 270.252 170.198 269.607 169.875 268.712L167.059 260.836C167.03 260.748 167.015 260.682 167.015 260.638C167.015 260.462 167.066 260.315 167.169 260.198C167.286 260.081 167.433 260.022 167.609 260.022C167.726 260.022 167.836 260.059 167.939 260.132C168.042 260.205 168.115 260.301 168.159 260.418L170.953 268.25C171.232 269.027 171.488 269.555 171.723 269.834C171.958 270.098 172.273 270.23 172.669 270.23C173.05 270.23 173.358 270.098 173.593 269.834C173.828 269.57 174.077 269.064 174.341 268.316L177.157 260.418C177.201 260.301 177.274 260.205 177.377 260.132C177.494 260.059 177.612 260.022 177.729 260.022C177.905 260.022 178.044 260.081 178.147 260.198C178.25 260.315 178.301 260.455 178.301 260.616C178.301 260.675 178.286 260.748 178.257 260.836L175.419 268.778C175.111 269.643 174.737 270.267 174.297 270.648C173.872 271.029 173.329 271.22 172.669 271.22ZM186.294 271.22C184.402 271.22 182.95 270.729 181.938 269.746C180.94 268.749 180.442 267.333 180.442 265.5C180.442 264.385 180.676 263.417 181.146 262.596C181.615 261.76 182.29 261.122 183.17 260.682C184.05 260.227 185.084 260 186.272 260C187.386 260 188.369 260.183 189.22 260.55C190.085 260.902 190.76 261.401 191.244 262.046C191.728 262.691 191.97 263.432 191.97 264.268C191.97 264.84 191.823 265.287 191.53 265.61C191.236 265.933 190.818 266.094 190.276 266.094H181.63C181.63 267.37 182.04 268.367 182.862 269.086C183.683 269.805 184.827 270.164 186.294 270.164C187.218 270.164 187.995 270.061 188.626 269.856C189.271 269.636 189.858 269.277 190.386 268.778C190.62 268.573 190.796 268.47 190.914 268.47C190.987 268.47 191.075 268.507 191.178 268.58C191.339 268.712 191.42 268.851 191.42 268.998C191.42 269.13 191.368 269.247 191.266 269.35C190.708 269.966 190.004 270.435 189.154 270.758C188.318 271.066 187.364 271.22 186.294 271.22ZM189.968 265.104C190.276 265.104 190.496 265.038 190.628 264.906C190.76 264.774 190.826 264.554 190.826 264.246C190.826 263.645 190.628 263.102 190.232 262.618C189.85 262.119 189.308 261.738 188.604 261.474C187.914 261.195 187.137 261.056 186.272 261.056C184.79 261.056 183.646 261.408 182.84 262.112C182.048 262.816 181.652 263.813 181.652 265.104H189.968ZM196.743 271.22C196.377 271.22 196.193 270.985 196.193 270.516V255.006C196.193 254.537 196.377 254.302 196.743 254.302C197.125 254.302 197.315 254.537 197.315 255.006V270.516C197.315 270.985 197.125 271.22 196.743 271.22ZM207.346 271.22C206.07 271.22 204.992 270.956 204.112 270.428C203.246 269.885 202.601 269.189 202.176 268.338C201.75 267.487 201.538 266.578 201.538 265.61C201.538 264.642 201.75 263.733 202.176 262.882C202.601 262.031 203.246 261.342 204.112 260.814C204.992 260.271 206.07 260 207.346 260C208.622 260 209.692 260.271 210.558 260.814C211.438 261.342 212.09 262.031 212.516 262.882C212.941 263.733 213.154 264.642 213.154 265.61C213.154 266.578 212.941 267.487 212.516 268.338C212.09 269.189 211.438 269.885 210.558 270.428C209.692 270.956 208.622 271.22 207.346 271.22ZM207.346 270.164C208.754 270.164 209.883 269.768 210.734 268.976C211.584 268.169 212.01 267.047 212.01 265.61C212.01 264.173 211.584 263.058 210.734 262.266C209.883 261.459 208.754 261.056 207.346 261.056C205.938 261.056 204.808 261.459 203.958 262.266C203.107 263.058 202.682 264.173 202.682 265.61C202.682 267.047 203.107 268.169 203.958 268.976C204.808 269.768 205.938 270.164 207.346 270.164ZM217.485 277.578C217.118 277.578 216.935 277.343 216.935 276.874V260.704C216.935 260.235 217.118 260 217.485 260C217.866 260 218.057 260.235 218.057 260.704V262.486C219.142 260.829 220.836 260 223.139 260C224.943 260 226.351 260.491 227.363 261.474C228.39 262.442 228.903 263.784 228.903 265.5C228.903 266.659 228.668 267.671 228.199 268.536C227.73 269.401 227.055 270.069 226.175 270.538C225.31 270.993 224.29 271.22 223.117 271.22C222.046 271.22 221.1 271.022 220.279 270.626C219.458 270.215 218.724 269.599 218.079 268.778L218.057 276.874C218.057 277.343 217.866 277.578 217.485 277.578ZM223.161 270.164C224.598 270.164 225.72 269.746 226.527 268.91C227.348 268.074 227.759 266.915 227.759 265.434C227.759 264.011 227.363 262.926 226.571 262.178C225.794 261.43 224.65 261.056 223.139 261.056C221.555 261.056 220.308 261.452 219.399 262.244C218.504 263.036 218.057 264.121 218.057 265.5C218.057 266.424 218.27 267.238 218.695 267.942C219.12 268.646 219.714 269.196 220.477 269.592C221.254 269.973 222.149 270.164 223.161 270.164ZM237.874 271.22C235.982 271.22 234.53 270.729 233.518 269.746C232.521 268.749 232.022 267.333 232.022 265.5C232.022 264.385 232.257 263.417 232.726 262.596C233.196 261.76 233.87 261.122 234.75 260.682C235.63 260.227 236.664 260 237.852 260C238.967 260 239.95 260.183 240.8 260.55C241.666 260.902 242.34 261.401 242.824 262.046C243.308 262.691 243.55 263.432 243.55 264.268C243.55 264.84 243.404 265.287 243.11 265.61C242.817 265.933 242.399 266.094 241.856 266.094H233.21C233.21 267.37 233.621 268.367 234.442 269.086C235.264 269.805 236.408 270.164 237.874 270.164C238.798 270.164 239.576 270.061 240.206 269.856C240.852 269.636 241.438 269.277 241.966 268.778C242.201 268.573 242.377 268.47 242.494 268.47C242.568 268.47 242.656 268.507 242.758 268.58C242.92 268.712 243 268.851 243 268.998C243 269.13 242.949 269.247 242.846 269.35C242.289 269.966 241.585 270.435 240.734 270.758C239.898 271.066 238.945 271.22 237.874 271.22ZM241.548 265.104C241.856 265.104 242.076 265.038 242.208 264.906C242.34 264.774 242.406 264.554 242.406 264.246C242.406 263.645 242.208 263.102 241.812 262.618C241.431 262.119 240.888 261.738 240.184 261.474C239.495 261.195 238.718 261.056 237.852 261.056C236.371 261.056 235.227 261.408 234.42 262.112C233.628 262.816 233.232 263.813 233.232 265.104H241.548ZM247.884 271.22C247.517 271.22 247.334 270.985 247.334 270.516V260.704C247.334 260.235 247.517 260 247.884 260C248.265 260 248.456 260.235 248.456 260.704V262.266C248.984 261.562 249.6 261.049 250.304 260.726C251.008 260.389 251.844 260.22 252.812 260.22H253.384C253.838 260.22 254.066 260.396 254.066 260.748C254.066 261.1 253.838 261.276 253.384 261.276H252.812C251.462 261.276 250.399 261.643 249.622 262.376C248.844 263.109 248.456 264.114 248.456 265.39V270.516C248.456 270.985 248.265 271.22 247.884 271.22Z" fill="black"/>
</svg>
